<mxfile host="app.diagrams.net" modified="2024-01-22T11:08:09.976Z" agent="Mozilla/5.0 (Windows NT 10.0; Win64; x64) AppleWebKit/537.36 (KHTML, like Gecko) Chrome/120.0.0.0 Safari/537.36" etag="_EXq7x4stky-ihcs9bkO" version="22.1.21" type="device">
  <diagram name="Page-1" id="yJNOYr8EjWPmTPafaYhc">
    <mxGraphModel dx="1036" dy="516" grid="1" gridSize="10" guides="1" tooltips="1" connect="1" arrows="1" fold="1" page="1" pageScale="1" pageWidth="827" pageHeight="1169" math="0" shadow="0">
      <root>
        <mxCell id="0" />
        <mxCell id="1" parent="0" />
        <mxCell id="-aS0YQJ6wKH54kZbifb_-2" value="" style="ellipse;whiteSpace=wrap;html=1;fillColor=none;" vertex="1" parent="1">
          <mxGeometry x="599.5" y="130" width="160" height="40" as="geometry" />
        </mxCell>
        <mxCell id="-aS0YQJ6wKH54kZbifb_-8" value="" style="group" vertex="1" connectable="0" parent="1">
          <mxGeometry x="280" y="180" width="160" height="120" as="geometry" />
        </mxCell>
        <mxCell id="-aS0YQJ6wKH54kZbifb_-1" value="" style="shape=cylinder3;whiteSpace=wrap;html=1;boundedLbl=1;backgroundOutline=1;size=20.4000244140625;" vertex="1" parent="-aS0YQJ6wKH54kZbifb_-8">
          <mxGeometry width="160" height="120" as="geometry" />
        </mxCell>
        <mxCell id="-aS0YQJ6wKH54kZbifb_-6" value="" style="endArrow=none;html=1;rounded=0;" edge="1" parent="-aS0YQJ6wKH54kZbifb_-8">
          <mxGeometry width="50" height="50" relative="1" as="geometry">
            <mxPoint x="90" y="40" as="sourcePoint" />
            <mxPoint x="90" y="120" as="targetPoint" />
          </mxGeometry>
        </mxCell>
        <mxCell id="-aS0YQJ6wKH54kZbifb_-7" value="" style="endArrow=none;html=1;rounded=0;" edge="1" parent="-aS0YQJ6wKH54kZbifb_-8">
          <mxGeometry width="50" height="50" relative="1" as="geometry">
            <mxPoint x="70" as="sourcePoint" />
            <mxPoint x="70" y="40" as="targetPoint" />
          </mxGeometry>
        </mxCell>
        <mxCell id="-aS0YQJ6wKH54kZbifb_-17" value="" style="group" vertex="1" connectable="0" parent="1">
          <mxGeometry x="520" y="320" width="160" height="119" as="geometry" />
        </mxCell>
        <mxCell id="-aS0YQJ6wKH54kZbifb_-13" value="" style="group" vertex="1" connectable="0" parent="-aS0YQJ6wKH54kZbifb_-17">
          <mxGeometry y="39" width="160" height="80" as="geometry" />
        </mxCell>
        <mxCell id="-aS0YQJ6wKH54kZbifb_-14" value="" style="shape=cylinder3;whiteSpace=wrap;html=1;boundedLbl=1;backgroundOutline=1;size=20.4000244140625;" vertex="1" parent="-aS0YQJ6wKH54kZbifb_-13">
          <mxGeometry width="160" height="80" as="geometry" />
        </mxCell>
        <mxCell id="-aS0YQJ6wKH54kZbifb_-15" value="" style="endArrow=none;html=1;rounded=0;" edge="1" parent="-aS0YQJ6wKH54kZbifb_-13">
          <mxGeometry width="50" height="50" relative="1" as="geometry">
            <mxPoint x="90" y="40" as="sourcePoint" />
            <mxPoint x="90" y="80" as="targetPoint" />
          </mxGeometry>
        </mxCell>
        <mxCell id="-aS0YQJ6wKH54kZbifb_-16" value="" style="endArrow=none;html=1;rounded=0;" edge="1" parent="-aS0YQJ6wKH54kZbifb_-13">
          <mxGeometry width="50" height="50" relative="1" as="geometry">
            <mxPoint x="70" as="sourcePoint" />
            <mxPoint x="70" y="40" as="targetPoint" />
          </mxGeometry>
        </mxCell>
        <mxCell id="-aS0YQJ6wKH54kZbifb_-9" value="" style="group" vertex="1" connectable="0" parent="-aS0YQJ6wKH54kZbifb_-17">
          <mxGeometry width="160" height="80" as="geometry" />
        </mxCell>
        <mxCell id="-aS0YQJ6wKH54kZbifb_-10" value="" style="shape=cylinder3;whiteSpace=wrap;html=1;boundedLbl=1;backgroundOutline=1;size=20.4000244140625;" vertex="1" parent="-aS0YQJ6wKH54kZbifb_-9">
          <mxGeometry width="160" height="80" as="geometry" />
        </mxCell>
        <mxCell id="-aS0YQJ6wKH54kZbifb_-11" value="" style="endArrow=none;html=1;rounded=0;" edge="1" parent="-aS0YQJ6wKH54kZbifb_-9">
          <mxGeometry width="50" height="50" relative="1" as="geometry">
            <mxPoint x="90" y="40" as="sourcePoint" />
            <mxPoint x="90" y="80" as="targetPoint" />
          </mxGeometry>
        </mxCell>
        <mxCell id="-aS0YQJ6wKH54kZbifb_-12" value="" style="endArrow=none;html=1;rounded=0;" edge="1" parent="-aS0YQJ6wKH54kZbifb_-9">
          <mxGeometry width="50" height="50" relative="1" as="geometry">
            <mxPoint x="70" as="sourcePoint" />
            <mxPoint x="70" y="40" as="targetPoint" />
          </mxGeometry>
        </mxCell>
      </root>
    </mxGraphModel>
  </diagram>
</mxfile>
